<svg width="375" height="410" viewBox="0 0 375 410" fill="none" xmlns="http://www.w3.org/2000/svg">
<g clip-path="url(#clip0_224_139)">
<path d="M391 264.623L334.24 223.322C334.24 223.322 301.727 168.255 296.216 133.012C290.706 97.7693 265.908 34.9928 265.908 34.9928V1.95252C265.908 1.95252 237.252 -9.06091 235.048 21.226C232.844 51.5129 241.11 90.6106 241.11 90.6106C241.11 90.6106 249.376 140.171 230.639 152.837L162.307 264.623C162.307 264.623 227.884 324.646 279.133 332.355L391 410V264.623Z" fill="#FFB8B8"/>
<path d="M95.9035 106.305H94.0325C77.1748 106.305 67.6989 126.193 78.7758 138.891C82.341 142.978 87.76 145.808 95.9035 145.953V106.305Z" fill="#FFB8B8"/>
<path d="M95.9035 145.953H94.0325C77.1748 145.953 67.6989 165.841 78.7758 178.539C82.341 182.627 87.76 185.456 95.9035 185.601V145.953Z" fill="#FFB8B8"/>
<path d="M95.9035 185.601H94.0325C77.1748 185.601 67.6989 205.489 78.7758 218.188C82.341 222.275 87.76 225.104 95.9035 225.25V185.601Z" fill="#FFB8B8"/>
<path d="M95.9035 225.25H94.0325C77.1748 225.25 67.6989 245.138 78.7758 257.836C82.341 261.923 87.76 264.753 95.9035 264.898V225.25Z" fill="#FFB8B8"/>
<path d="M242.212 96.8381H240.572V51.9426C240.572 48.5303 239.899 45.1514 238.592 41.9989C237.285 38.8463 235.37 35.9818 232.956 33.569C230.541 31.1561 227.674 29.2421 224.52 27.9363C221.365 26.6305 217.983 25.9584 214.569 25.9584H119.383C115.969 25.9584 112.587 26.6305 109.432 27.9363C106.278 29.2421 103.411 31.1561 100.996 33.569C98.5819 35.9818 96.6665 38.8463 95.3597 41.9989C94.053 45.1514 93.3804 48.5303 93.3804 51.9426V298.242C93.3804 301.655 94.053 305.034 95.3597 308.186C96.6665 311.339 98.5819 314.203 100.996 316.616C103.411 319.029 106.278 320.943 109.432 322.249C112.587 323.555 115.969 324.227 119.383 324.227H214.569C217.983 324.227 221.365 323.555 224.52 322.249C227.674 320.943 230.541 319.029 232.956 316.616C235.37 314.203 237.285 311.339 238.592 308.186C239.899 305.034 240.572 301.655 240.572 298.242V128.795H242.212V96.8381Z" fill="#3F3D56"/>
<path d="M235.037 52.1241V298.059C235.033 300.936 234.391 303.776 233.158 306.375C231.925 308.974 230.132 311.268 227.906 313.093C227.414 313.496 226.901 313.873 226.369 314.222C223.185 316.342 219.443 317.471 215.617 317.465H119.974C118.424 317.468 116.879 317.283 115.373 316.914C111.146 315.884 107.388 313.466 104.701 310.047C102.014 306.628 100.554 302.407 100.555 298.059V52.1241C100.555 46.9776 102.601 42.042 106.243 38.4028C109.885 34.7636 114.824 32.719 119.974 32.7185H131.58C131.008 34.1182 130.79 35.6368 130.945 37.1406C131.099 38.6444 131.621 40.0871 132.465 41.3417C133.309 42.5963 134.449 43.6242 135.784 44.3349C137.119 45.0456 138.609 45.4172 140.121 45.417H194.649C196.162 45.4153 197.65 45.0426 198.985 44.3316C200.319 43.6205 201.458 42.5929 202.302 41.339C203.146 40.0851 203.669 38.6433 203.825 37.1402C203.981 35.6371 203.765 34.1187 203.196 32.7185H215.617C220.768 32.719 225.707 34.7636 229.349 38.4028C232.99 42.042 235.037 46.9776 235.037 52.1241Z" fill="#EE7053"/>
<path d="M147.725 218.049C147.725 218.049 157.113 244.11 149.811 258.703C142.509 273.297 161.286 289.976 161.286 289.976C161.286 289.976 210.315 264.958 204.056 252.449C197.797 239.94 187.365 223.261 189.451 212.837L147.725 218.049Z" fill="#FFB8B8"/>
<path d="M165.98 227.952C184.416 227.952 199.361 213.017 199.361 194.595C199.361 176.172 184.416 161.237 165.98 161.237C147.544 161.237 132.599 176.172 132.599 194.595C132.599 213.017 147.544 227.952 165.98 227.952Z" fill="#FFB8B8"/>
<path d="M230.882 311.646C230.004 312.765 229.006 313.784 227.906 314.685C227.414 315.088 226.901 315.465 226.369 315.814C223.288 317.863 219.596 318.507 215.617 318.507H131.139L132.599 277.989L141.989 257.14C144.097 258.792 146.353 260.247 148.729 261.485C149.291 261.788 149.886 262.091 150.509 262.388C159.304 266.634 173.681 270.367 187.618 259.971C192.004 256.7 196.346 252.024 200.463 245.526L226.484 260.268L227.851 276.237L230.882 311.646Z" fill="white"/>
<path d="M152.504 241.54L151.198 255.18L150.509 262.388L149.478 273.121L145.075 319.058H119.974C118.424 319.06 116.879 318.876 115.373 318.507L105.476 272.774L105.762 272.587L152.504 241.54Z" fill="#2F2E41"/>
<path d="M235.037 250.912V299.652C235.033 302.528 234.391 305.368 233.158 307.967C231.925 310.567 230.132 312.861 227.906 314.685C227.414 315.088 226.901 315.465 226.369 315.814C223.185 317.935 219.443 319.063 215.617 319.058H182.03C182.763 303.655 184.058 288.622 185.573 275.527C186.223 269.949 186.912 264.723 187.618 259.971C189.888 244.651 192.324 234.249 194.071 232.844L205.621 240.46L235.037 250.912Z" fill="#2F2E41"/>
<path d="M129.469 310.302L128.268 319.058H119.974C118.424 319.06 116.879 318.875 115.373 318.507C111.146 317.477 107.388 315.059 104.701 311.64C102.014 308.221 100.554 303.999 100.555 299.652V297.89L104.434 272.774L105.762 272.586L111.736 271.733L129.469 310.302Z" fill="#2F2E41"/>
<path d="M235.037 257.267V299.652C235.033 302.528 234.391 305.368 233.158 307.967C231.925 310.567 230.131 312.861 227.906 314.685C227.414 315.088 226.901 315.465 226.369 315.814L221.266 293.622L227.851 276.237L235.037 257.267Z" fill="#2F2E41"/>
<path d="M197.813 164.425C192.765 156.234 184.864 150.198 175.629 147.478L168.847 152.9L171.484 146.576C169.267 146.238 167.022 146.109 164.781 146.189L158.678 154.029L161.204 146.458C150.66 147.801 140.635 153.54 134.559 162.296C126.792 173.487 125.481 189.05 133.12 200.328C135.217 193.888 137.762 187.846 139.859 181.406C140.343 181.613 142.177 181.6 144.828 181.43L147.379 175.482L148.092 181.179C156 180.49 167.729 178.979 175.225 177.594L174.497 173.224L178.858 176.855C181.155 176.327 182.518 175.848 182.406 175.482C187.981 184.464 193.506 190.201 199.081 199.182C201.197 186.513 204.934 175.982 197.813 164.425Z" fill="#2F2E41"/>
<path d="M195.964 198.063C197.212 198.063 198.224 196.041 198.224 193.547C198.224 191.053 197.212 189.031 195.964 189.031C194.716 189.031 193.704 191.053 193.704 193.547C193.704 196.041 194.716 198.063 195.964 198.063Z" fill="#FFB8B8"/>
<path d="M269.489 311.43C292.467 311.43 311.095 269.764 311.095 218.366C311.095 166.969 292.467 125.303 269.489 125.303C246.511 125.303 227.884 166.969 227.884 218.366C227.884 269.764 246.511 311.43 269.489 311.43Z" fill="#FFB8B8"/>
<path opacity="0.2" d="M119.853 102.175C117.674 102.175 115.543 101.529 113.73 100.319C111.918 99.1084 110.505 97.3884 109.671 95.3759C108.837 93.3635 108.619 91.149 109.044 89.0126C109.469 86.8762 110.519 84.9138 112.06 83.3736C113.601 81.8333 115.565 80.7844 117.703 80.3595C119.841 79.9345 122.057 80.1526 124.071 80.9862C126.085 81.8198 127.806 83.2314 129.017 85.0425C130.228 86.8537 130.875 88.983 130.875 91.1613C130.871 94.0812 129.709 96.8805 127.643 98.9452C125.577 101.01 122.775 102.171 119.853 102.175ZM119.853 81.2492C117.892 81.2492 115.974 81.8305 114.343 82.9197C112.711 84.0088 111.44 85.5569 110.689 87.3681C109.938 89.1793 109.742 91.1723 110.125 93.095C110.508 95.0178 111.452 96.7839 112.839 98.1702C114.227 99.5564 115.994 100.5 117.918 100.883C119.842 101.265 121.837 101.069 123.649 100.319C125.462 99.5686 127.011 98.2982 128.101 96.6681C129.191 95.0381 129.773 93.1217 129.773 91.1613C129.77 88.5333 128.724 86.0139 126.864 84.1556C125.004 82.2974 122.483 81.2521 119.853 81.2492Z" fill="black"/>
<path opacity="0.2" d="M115.445 90.06C116.358 90.06 117.098 89.3204 117.098 88.408C117.098 87.4956 116.358 86.756 115.445 86.756C114.532 86.756 113.792 87.4956 113.792 88.408C113.792 89.3204 114.532 90.06 115.445 90.06Z" fill="black"/>
<path opacity="0.2" d="M123.711 90.06C124.624 90.06 125.364 89.3204 125.364 88.408C125.364 87.4956 124.624 86.756 123.711 86.756C122.798 86.756 122.058 87.4956 122.058 88.408C122.058 89.3204 122.798 90.06 123.711 90.06Z" fill="black"/>
<path opacity="0.2" d="M123.711 95.016H115.445C115.299 95.016 115.159 94.958 115.055 94.8547C114.952 94.7515 114.894 94.6114 114.894 94.4653C114.894 94.3193 114.952 94.1792 115.055 94.076C115.159 93.9727 115.299 93.9147 115.445 93.9147H123.711C123.857 93.9147 123.997 93.9727 124.101 94.076C124.204 94.1792 124.262 94.3193 124.262 94.4653C124.262 94.6114 124.204 94.7515 124.101 94.8547C123.997 94.958 123.857 95.016 123.711 95.016Z" fill="black"/>
<path opacity="0.2" d="M215.739 102.175C213.559 102.175 211.428 101.529 209.616 100.319C207.804 99.1084 206.391 97.3884 205.557 95.3759C204.723 93.3635 204.504 91.149 204.93 89.0126C205.355 86.8762 206.404 84.9138 207.946 83.3736C209.487 81.8333 211.451 80.7844 213.589 80.3595C215.727 79.9345 217.943 80.1526 219.957 80.9862C221.971 81.8198 223.692 83.2314 224.903 85.0425C226.114 86.8537 226.76 88.983 226.76 91.1613C226.757 94.0812 225.595 96.8806 223.529 98.9453C221.463 101.01 218.661 102.171 215.739 102.175ZM215.739 81.2492C213.777 81.2492 211.86 81.8305 210.228 82.9197C208.597 84.0088 207.326 85.5569 206.575 87.3681C205.824 89.1793 205.628 91.1723 206.011 93.095C206.393 95.0178 207.338 96.7839 208.725 98.1702C210.112 99.5564 211.88 100.5 213.804 100.883C215.728 101.265 217.723 101.069 219.535 100.319C221.348 99.5686 222.897 98.2982 223.987 96.6681C225.077 95.0381 225.658 93.1217 225.658 91.1613C225.655 88.5333 224.609 86.0139 222.75 84.1557C220.89 82.2975 218.369 81.2522 215.739 81.2492Z" fill="black"/>
<path opacity="0.2" d="M211.33 90.06C212.243 90.06 212.984 89.3204 212.984 88.408C212.984 87.4956 212.243 86.756 211.33 86.756C210.417 86.756 209.677 87.4956 209.677 88.408C209.677 89.3204 210.417 90.06 211.33 90.06Z" fill="black"/>
<path opacity="0.2" d="M219.597 90.06C220.51 90.06 221.25 89.3204 221.25 88.408C221.25 87.4956 220.51 86.756 219.597 86.756C218.684 86.756 217.943 87.4956 217.943 88.408C217.943 89.3204 218.684 90.06 219.597 90.06Z" fill="black"/>
<path opacity="0.2" d="M219.596 96.1174C219.5 96.1173 219.405 96.092 219.322 96.044C218.168 95.3129 216.83 94.9247 215.464 94.9247C214.097 94.9247 212.759 95.3129 211.605 96.044C211.543 96.0802 211.473 96.1038 211.402 96.1133C211.33 96.1228 211.257 96.118 211.187 96.0992C211.117 96.0805 211.051 96.0481 210.994 96.004C210.936 95.9599 210.888 95.9049 210.852 95.8421C210.816 95.7793 210.792 95.7101 210.783 95.6382C210.774 95.5664 210.779 95.4935 210.797 95.4236C210.816 95.3536 210.849 95.2881 210.893 95.2308C210.937 95.1735 210.993 95.1254 211.055 95.0894C212.378 94.2652 213.905 93.8282 215.464 93.8282C217.022 93.8282 218.549 94.2652 219.871 95.0894C219.977 95.15 220.059 95.2435 220.106 95.3556C220.152 95.4677 220.16 95.592 220.129 95.7092C220.098 95.8264 220.028 95.93 219.932 96.0038C219.835 96.0776 219.717 96.1175 219.596 96.1174Z" fill="black"/>
<path d="M168.347 113.522C163.922 113.522 159.595 112.21 155.916 109.753C152.236 107.296 149.368 103.804 147.674 99.7183C145.98 95.6324 145.537 91.1365 146.401 86.7989C147.264 82.4614 149.395 78.4771 152.525 75.3499C155.654 72.2228 159.641 70.0931 163.982 69.2303C168.323 68.3675 172.822 68.8103 176.911 70.5028C180.999 72.1952 184.494 75.0612 186.953 78.7384C189.412 82.4156 190.724 86.7388 190.724 91.1613C190.717 97.0896 188.358 102.773 184.163 106.965C179.968 111.157 174.28 113.515 168.347 113.522ZM168.347 71.0367C164.364 71.0367 160.471 72.217 157.159 74.4283C153.847 76.6396 151.266 79.7827 149.741 83.4599C148.217 87.1372 147.818 91.1836 148.595 95.0874C149.372 98.9911 151.29 102.577 154.107 105.391C156.923 108.206 160.512 110.123 164.418 110.899C168.325 111.676 172.374 111.277 176.054 109.754C179.734 108.231 182.879 105.651 185.092 102.342C187.305 99.0324 188.486 95.1415 188.486 91.1613C188.48 85.8258 186.357 80.7105 182.581 76.9377C178.806 73.1649 173.687 71.0427 168.347 71.0367V71.0367Z" fill="white"/>
<path d="M159.397 88.9252C161.25 88.9252 162.753 87.4235 162.753 85.5711C162.753 83.7187 161.25 82.217 159.397 82.217C157.543 82.217 156.04 83.7187 156.04 85.5711C156.04 87.4235 157.543 88.9252 159.397 88.9252Z" fill="white"/>
<path d="M176.179 88.9252C178.033 88.9252 179.536 87.4235 179.536 85.5711C179.536 83.7187 178.033 82.217 176.179 82.217C174.326 82.217 172.823 83.7187 172.823 85.5711C172.823 87.4235 174.326 88.9252 176.179 88.9252Z" fill="white"/>
<path d="M168.359 102.078C165.35 102.078 162.159 100.988 158.788 98.8074C158.54 98.6459 158.365 98.3925 158.304 98.1027C158.242 97.813 158.298 97.5106 158.459 97.2621C158.621 97.0136 158.874 96.8391 159.164 96.7772C159.454 96.7152 159.756 96.7708 160.005 96.9316C165.935 100.773 170.988 100.801 175.456 97.0168C175.682 96.8255 175.975 96.7318 176.271 96.7564C176.566 96.7809 176.84 96.9216 177.032 97.1476C177.223 97.3735 177.317 97.6663 177.293 97.9616C177.269 98.2568 177.128 98.5304 176.903 98.7222C174.263 100.959 171.407 102.078 168.359 102.078Z" fill="white"/>
<path d="M205.268 128.056H190.724V125.82H203.031V113.522H205.268V128.056Z" fill="white"/>
<path d="M133.663 68.8005H131.426V54.2661H145.971V56.5022H133.663V68.8005Z" fill="white"/>
</g>
<defs>
<clipPath id="clip0_224_139">
<rect width="301" height="410" fill="white" transform="translate(74)"/>
</clipPath>
</defs>
</svg>
