<svg width="22" height="22" viewBox="0 0 22 22" fill="none" xmlns="http://www.w3.org/2000/svg">
<g clip-path="url(#clip0_66_37)">
<path d="M18.3332 4.58337H15.5832L14.6665 1.83337H7.33317L6.4165 4.58337H3.6665C2.93716 4.58337 2.23769 4.87311 1.72196 5.38883C1.20624 5.90456 0.916504 6.60403 0.916504 7.33337V17.4167C0.916504 18.1461 1.20624 18.8455 1.72196 19.3613C2.23769 19.877 2.93716 20.1667 3.6665 20.1667H18.3332C19.0625 20.1667 19.762 19.877 20.2777 19.3613C20.7934 18.8455 21.0832 18.1461 21.0832 17.4167V7.33337C21.0832 6.60403 20.7934 5.90456 20.2777 5.38883C19.762 4.87311 19.0625 4.58337 18.3332 4.58337Z" stroke="white" stroke-width="2" stroke-linecap="round" stroke-linejoin="round"/>
<path d="M10.9997 16.5001C13.0247 16.5001 14.6663 14.8585 14.6663 12.8334C14.6663 10.8084 13.0247 9.16675 10.9997 9.16675C8.97463 9.16675 7.33301 10.8084 7.33301 12.8334C7.33301 14.8585 8.97463 16.5001 10.9997 16.5001Z" stroke="white" stroke-width="2" stroke-linecap="round" stroke-linejoin="round"/>
<path d="M10.083 5.5H11.9163" stroke="white" stroke-width="2" stroke-linecap="round" stroke-linejoin="round"/>
</g>
<defs>
<clipPath id="clip0_66_37">
<rect width="22" height="22" fill="white"/>
</clipPath>
</defs>
</svg>
