<svg width="16" height="16" viewBox="0 0 16 16" fill="none" xmlns="http://www.w3.org/2000/svg">
<path fill-rule="evenodd" clip-rule="evenodd" d="M4.66675 0.666504C5.03493 0.666504 5.33341 0.964984 5.33341 1.33317V1.99984H10.6667V1.33317C10.6667 0.964984 10.9652 0.666504 11.3334 0.666504C11.7016 0.666504 12.0001 0.964984 12.0001 1.33317V1.99984H13.3334C14.438 1.99984 15.3334 2.89527 15.3334 3.99984V13.3332C15.3334 14.4378 14.438 15.3332 13.3334 15.3332H2.66675C1.56218 15.3332 0.666748 14.4378 0.666748 13.3332V3.99984C0.666748 2.89527 1.56218 1.99984 2.66675 1.99984H4.00008V1.33317C4.00008 0.964984 4.29856 0.666504 4.66675 0.666504ZM2.66675 3.33317C2.29856 3.33317 2.00008 3.63164 2.00008 3.99984V5.33317H14.0001V3.99984C14.0001 3.63165 13.7016 3.33317 13.3334 3.33317H2.66675ZM14.0001 6.6665H2.00008V13.3332C2.00008 13.7014 2.29856 13.9998 2.66675 13.9998H13.3334C13.7016 13.9998 14.0001 13.7014 14.0001 13.3332V6.6665Z" fill="#111111"/>
</svg>
