<svg width="28" height="28" viewBox="0 0 28 28" fill="none" xmlns="http://www.w3.org/2000/svg">
<path d="M27.7277 11.2581H26.6V11.2H14V16.8H21.9121C20.7578 20.0599 17.6561 22.4 14 22.4C9.3611 22.4 5.6 18.6389 5.6 14C5.6 9.3611 9.3611 5.6 14 5.6C16.1413 5.6 18.0894 6.4078 19.5727 7.7273L23.5326 3.7674C21.0322 1.4371 17.6876 0 14 0C6.2685 0 0 6.2685 0 14C0 21.7315 6.2685 28 14 28C21.7315 28 28 21.7315 28 14C28 13.0613 27.9034 12.145 27.7277 11.2581Z" fill="#FFC107"/>
<path d="M1.6142 7.4837L6.2139 10.857C7.4585 7.7756 10.4727 5.6 14 5.6C16.1413 5.6 18.0894 6.4078 19.5727 7.7273L23.5326 3.7674C21.0322 1.4371 17.6876 0 14 0C8.6226 0 3.9592 3.0359 1.6142 7.4837Z" fill="#FF3D00"/>
<path d="M14 28C17.6162 28 20.902 26.6161 23.3863 24.3656L19.0533 20.699C17.6477 21.7637 15.9005 22.4 14 22.4C10.3586 22.4 7.2667 20.0781 6.1019 16.8378L1.5365 20.3553C3.8535 24.8892 8.5589 28 14 28Z" fill="#4CAF50"/>
<path d="M27.7277 11.2581H26.6V11.2H14V16.8H21.9121C21.3577 18.3659 20.3504 19.7161 19.0512 20.6996C19.0519 20.6989 19.0526 20.699 19.0533 20.6983L23.3863 24.3648C23.0797 24.6434 28 21 28 14C28 13.0613 27.9034 12.145 27.7277 11.2581Z" fill="#1976D2"/>
</svg>
