<svg width="28" height="28" viewBox="0 0 28 28" fill="none" xmlns="http://www.w3.org/2000/svg">
<path d="M21.875 1.75H6.125C4.96468 1.75 3.85188 2.21094 3.03141 3.03141C2.21094 3.85188 1.75 4.96468 1.75 6.125V21.875C1.75 23.0353 2.21094 24.1481 3.03141 24.9686C3.85188 25.7891 4.96468 26.25 6.125 26.25H21.875C23.0353 26.25 24.1481 25.7891 24.9686 24.9686C25.7891 24.1481 26.25 23.0353 26.25 21.875V6.125C26.25 4.96468 25.7891 3.85188 24.9686 3.03141C24.1481 2.21094 23.0353 1.75 21.875 1.75ZM6.125 3.5H21.875C22.5712 3.5 23.2389 3.77656 23.7312 4.26884C24.2234 4.76113 24.5 5.42881 24.5 6.125V11.0163L22.855 9.37125C22.3628 8.87967 21.6956 8.60356 21 8.60356C20.3044 8.60356 19.6372 8.87967 19.145 9.37125L12.1888 16.3712L9.56375 14.2538C9.09472 13.8699 8.50732 13.6602 7.90125 13.6602C7.29518 13.6602 6.70778 13.8699 6.23875 14.2538L3.5 16.5025V6.125C3.5 5.42881 3.77656 4.76113 4.26884 4.26884C4.76113 3.77656 5.42881 3.5 6.125 3.5ZM21.875 24.5H6.125C5.42881 24.5 4.76113 24.2234 4.26884 23.7312C3.77656 23.2389 3.5 22.5712 3.5 21.875V18.7862L7.3325 15.5837C7.48907 15.4551 7.68545 15.3847 7.88813 15.3847C8.0908 15.3847 8.28718 15.4551 8.44375 15.5837L11.7075 18.2087C11.8751 18.3433 12.0864 18.4113 12.3011 18.4C12.5157 18.3888 12.7187 18.2989 12.8713 18.1475L20.3787 10.6312C20.4601 10.5492 20.5569 10.4841 20.6635 10.4397C20.7701 10.3953 20.8845 10.3724 21 10.3724C21.1155 10.3724 21.2299 10.3953 21.3365 10.4397C21.4431 10.4841 21.5399 10.5492 21.6213 10.6312L24.5 13.4837V21.875C24.5 22.5712 24.2234 23.2389 23.7312 23.7312C23.2389 24.2234 22.5712 24.5 21.875 24.5Z" fill="#9D9EA1"/>
<path d="M8.75 11.375C9.26918 11.375 9.77669 11.221 10.2084 10.9326C10.6401 10.6442 10.9765 10.2342 11.1752 9.75454C11.3739 9.27489 11.4258 8.74709 11.3246 8.23789C11.2233 7.72869 10.9733 7.26096 10.6062 6.89385C10.239 6.52673 9.77131 6.27673 9.26211 6.17544C8.75291 6.07415 8.22511 6.12614 7.74546 6.32482C7.2658 6.5235 6.85583 6.85995 6.56739 7.29163C6.27895 7.72331 6.125 8.23082 6.125 8.75C6.125 9.44619 6.40156 10.1139 6.89384 10.6062C7.38613 11.0984 8.05381 11.375 8.75 11.375ZM8.75 7.875C8.92306 7.875 9.09223 7.92632 9.23612 8.02247C9.38002 8.11861 9.49217 8.25527 9.5584 8.41515C9.62462 8.57504 9.64195 8.75097 9.60819 8.92071C9.57443 9.09044 9.49109 9.24635 9.36872 9.36872C9.24635 9.49109 9.09044 9.57443 8.9207 9.60819C8.75097 9.64195 8.57504 9.62462 8.41515 9.5584C8.25527 9.49217 8.11861 9.38002 8.02246 9.23613C7.92632 9.09223 7.875 8.92306 7.875 8.75C7.875 8.51794 7.96719 8.29538 8.13128 8.13128C8.29538 7.96719 8.51794 7.875 8.75 7.875Z" fill="#9D9EA1"/>
</svg>
